<svg width="323" height="317" viewBox="0 0 323 317" fill="none" xmlns="http://www.w3.org/2000/svg">
<g id="Group 3">
<path id="thread" d="M319.503 316.405C304.779 288.228 278.668 265.371 245.82 251.907C212.972 238.443 175.52 235.246 140.137 242.885C137.078 243.546 133.97 244.302 130.965 245.032C122.577 247.074 113.904 249.184 104.983 249.557C93.8387 250.015 79.3924 247.103 72.3151 237.516L74.8773 236.172C81.2643 244.824 94.5482 247.449 104.835 247.016C113.404 246.658 121.906 244.589 130.128 242.589C133.155 241.853 136.285 241.09 139.389 240.421C175.464 232.632 213.648 235.891 247.139 249.619C280.63 263.346 307.252 286.65 322.264 315.379L319.503 316.405Z" fill="#575A89"/>
<path id="Vector" d="M223.595 139.246C206.191 194.865 152.146 232.158 97.6783 229.091C96.9082 229.057 96.1255 229.006 95.3643 228.944L95.2509 231.337C95.2496 231.427 95.2397 231.517 95.2212 231.605C95.1084 233.069 94.6128 234.493 93.7699 235.775C92.9269 237.058 91.7576 238.167 90.3459 239.024C88.9341 239.88 87.3148 240.463 85.6044 240.729C83.894 240.996 82.1348 240.94 80.4532 240.565L65.7197 237.289C64.0612 236.922 62.5176 236.254 61.1967 235.332C59.8758 234.41 58.8094 233.257 58.0717 231.952C57.3341 230.647 56.943 229.222 56.9257 227.776C56.9085 226.331 57.2656 224.899 57.9719 223.582L58.099 223.35L59.5546 220.613L59.8749 219.996C12.9564 198.895 -10.6739 145.262 6.32766 90.9312C25.6174 29.2883 89.8839 -9.8641 149.887 3.47911C209.89 16.8223 242.885 77.6033 223.595 139.246Z" fill="#6C63FF"/>
<path id="Vector_2" opacity="0.2" d="M69.5451 52.3506C82.8046 41.0859 89.9271 28.9207 85.4538 25.1789C80.9804 21.4371 66.6051 27.5356 53.3456 38.8003C40.0861 50.065 32.9635 62.2302 37.4369 65.972C41.9102 69.7138 56.2856 63.6153 69.5451 52.3506Z" fill="white"/>
<path id="Vector_3" d="M95.2508 231.337C95.2496 231.427 95.2397 231.517 95.2212 231.606L58.099 223.35L59.5546 220.613L97.6783 229.091C96.9082 229.057 96.1255 229.006 95.3642 228.944L95.2508 231.337Z" fill="#575A89"/>
</g>
</svg>
